<svg width="388" height="49" viewBox="0 0 388 49" fill="none" xmlns="http://www.w3.org/2000/svg">
<path d="M13.5975 4.44C19.5708 4.17333 23.0375 4.04 23.9975 4.04C24.5308 4.04 24.9842 4.06666 25.3575 4.12C25.7308 4.12 26.0242 4.14666 26.2375 4.2C26.4508 4.2 26.6642 4.25333 26.8775 4.36C27.0908 4.46666 27.2242 4.54666 27.2775 4.6C27.3842 4.65333 27.5442 4.76 27.7575 4.92C27.9708 5.08 28.1308 5.21333 28.2375 5.32C29.3042 6.17333 29.8375 7.32 29.8375 8.76C29.8375 11.64 27.9708 13.32 24.2375 13.8L21.5975 14.12L21.9975 28.28C22.1042 34.2533 22.1575 37.5067 22.1575 38.04C22.1575 41.08 21.9442 43.0267 21.5175 43.88C20.5575 45.64 19.0375 46.52 16.9575 46.52C15.7842 46.52 14.7708 45.96 13.9175 44.84C13.2775 43.9867 12.8775 42.9467 12.7175 41.72C12.6108 40.4933 12.4775 36.68 12.3175 30.28C12.1042 21.2667 11.9442 16.44 11.8375 15.8L11.5175 14.2L7.5975 14.44C5.9975 14.5467 5.1175 14.6 4.9575 14.6C3.94417 14.6 3.0375 14.2267 2.2375 13.48C1.38417 12.6267 0.9575 11.56 0.9575 10.28C0.9575 8.04 1.73083 6.57333 3.2775 5.88C4.82417 5.18666 8.26417 4.70666 13.5975 4.44ZM63.775 0.999998C64.575 0.679999 65.3217 0.52 66.015 0.52C67.1883 0.52 68.2017 0.946665 69.055 1.8C69.7483 2.44 70.175 3.16 70.335 3.96C70.495 4.70666 70.6283 6.73333 70.735 10.04C70.8417 12.8133 70.895 16.1467 70.895 20.04C70.895 22.6533 70.8417 26.2 70.735 30.68L70.415 44.52L69.055 45.88C68.095 46.84 66.9217 47.32 65.535 47.32C64.2017 47.32 63.055 46.84 62.095 45.88L60.735 44.44L60.895 34.76L61.135 25.08L58.655 25.48C57.215 25.7467 54.8683 25.9333 51.615 26.04L47.055 26.2V34.12C47.055 38.0667 47.0017 40.4667 46.895 41.32C46.7883 42.12 46.415 42.8667 45.775 43.56C44.9217 44.5733 43.695 45.08 42.095 45.08C41.1883 45.08 40.3883 44.8933 39.695 44.52C38.5217 43.88 37.775 42.5733 37.455 40.6C37.1883 38.6267 36.975 33.5333 36.815 25.32C36.7617 22.76 36.735 19.24 36.735 14.76C36.735 10.5467 36.7883 8.25333 36.895 7.88C37.1083 6.6 37.6683 5.56 38.575 4.76C39.535 3.90667 40.6017 3.48 41.775 3.48C45.135 3.48 46.815 5.88 46.815 10.68C46.815 10.84 46.7883 11.08 46.735 11.4C46.735 11.72 46.735 11.9867 46.735 12.2L46.575 15.88L49.375 16.04H50.095C51.535 16.04 53.695 15.88 56.575 15.56L61.055 15V9.72C61.055 6.84 61.2417 4.81333 61.615 3.64C61.9883 2.41333 62.7083 1.53333 63.775 0.999998ZM90.2363 1.96C94.3429 1.42666 97.0096 1.16 98.2363 1.16C100.156 1.16 101.543 1.58666 102.396 2.44C103.41 3.4 103.916 4.46666 103.916 5.64C103.916 6.28 103.756 6.97333 103.436 7.72C102.85 8.89333 101.863 9.77333 100.476 10.36C99.1429 10.8933 96.9029 11.3467 93.7563 11.72C90.9829 12.04 89.3563 12.28 88.8763 12.44C88.4496 12.6 88.1829 13.0267 88.0763 13.72C88.0763 13.8267 88.0496 13.96 87.9963 14.12C87.9963 14.2267 87.9963 14.3067 87.9963 14.36C87.9963 14.68 88.1563 14.8933 88.4763 15C88.8496 15.0533 89.7296 15.08 91.1163 15.08C94.4763 15.1333 96.9029 15.5867 98.3963 16.44C99.8896 17.2933 100.636 18.6533 100.636 20.52C100.636 21.96 100.103 23.1067 99.0363 23.96C98.3429 24.5467 97.6496 24.92 96.9563 25.08C96.3163 25.1867 94.8229 25.24 92.4763 25.24H87.4363L87.6763 28.92C87.9429 32.1733 88.1296 34.3067 88.2363 35.32L88.5563 38.04L92.4763 37.64C93.0629 37.5867 93.8896 37.56 94.9563 37.56C99.7563 37.56 102.156 39.1333 102.156 42.28C102.156 44.2533 101.516 45.5867 100.236 46.28C99.0096 46.9733 96.4763 47.4533 92.6363 47.72C90.8229 47.8267 89.5963 47.88 88.9563 47.88C85.2763 47.88 82.6363 47 81.0363 45.24C80.0229 44.2267 79.3296 42.76 78.9563 40.84C78.5829 38.8667 78.1829 35.0267 77.7563 29.32C77.5963 26.9733 77.5163 24.5467 77.5163 22.04C77.5163 13.5067 78.0496 8.17333 79.1163 6.04C79.6496 4.92 80.6629 4.09333 82.1563 3.56C83.6496 3.02667 86.3429 2.49333 90.2363 1.96ZM123.754 4.44C129.727 4.17333 133.194 4.04 134.154 4.04C134.687 4.04 135.14 4.06666 135.514 4.12C135.887 4.12 136.18 4.14666 136.394 4.2C136.607 4.2 136.82 4.25333 137.034 4.36C137.247 4.46666 137.38 4.54666 137.434 4.6C137.54 4.65333 137.7 4.76 137.914 4.92C138.127 5.08 138.287 5.21333 138.394 5.32C139.46 6.17333 139.994 7.32 139.994 8.76C139.994 11.64 138.127 13.32 134.394 13.8L131.754 14.12L132.154 28.28C132.26 34.2533 132.314 37.5067 132.314 38.04C132.314 41.08 132.1 43.0267 131.674 43.88C130.714 45.64 129.194 46.52 127.114 46.52C125.94 46.52 124.927 45.96 124.074 44.84C123.434 43.9867 123.034 42.9467 122.874 41.72C122.767 40.4933 122.634 36.68 122.474 30.28C122.26 21.2667 122.1 16.44 121.994 15.8L121.674 14.2L117.754 14.44C116.154 14.5467 115.274 14.6 115.114 14.6C114.1 14.6 113.194 14.2267 112.394 13.48C111.54 12.6267 111.114 11.56 111.114 10.28C111.114 8.04 111.887 6.57333 113.434 5.88C114.98 5.18666 118.42 4.70666 123.754 4.44ZM173.931 0.999998C174.731 0.679999 175.478 0.52 176.171 0.52C177.345 0.52 178.358 0.946665 179.211 1.8C179.905 2.44 180.331 3.16 180.491 3.96C180.651 4.70666 180.785 6.73333 180.891 10.04C180.998 12.8133 181.051 16.1467 181.051 20.04C181.051 22.6533 180.998 26.2 180.891 30.68L180.571 44.52L179.211 45.88C178.251 46.84 177.078 47.32 175.691 47.32C174.358 47.32 173.211 46.84 172.251 45.88L170.891 44.44L171.051 34.76L171.291 25.08L168.811 25.48C167.371 25.7467 165.025 25.9333 161.771 26.04L157.211 26.2V34.12C157.211 38.0667 157.158 40.4667 157.051 41.32C156.945 42.12 156.571 42.8667 155.931 43.56C155.078 44.5733 153.851 45.08 152.251 45.08C151.345 45.08 150.545 44.8933 149.851 44.52C148.678 43.88 147.931 42.5733 147.611 40.6C147.345 38.6267 147.131 33.5333 146.971 25.32C146.918 22.76 146.891 19.24 146.891 14.76C146.891 10.5467 146.945 8.25333 147.051 7.88C147.265 6.6 147.825 5.56 148.731 4.76C149.691 3.90667 150.758 3.48 151.931 3.48C155.291 3.48 156.971 5.88 156.971 10.68C156.971 10.84 156.945 11.08 156.891 11.4C156.891 11.72 156.891 11.9867 156.891 12.2L156.731 15.88L159.531 16.04H160.251C161.691 16.04 163.851 15.88 166.731 15.56L171.211 15V9.72C171.211 6.84 171.398 4.81333 171.771 3.64C172.145 2.41333 172.865 1.53333 173.931 0.999998ZM191.433 3.88C192.393 3.24 193.353 2.92 194.312 2.92C195.273 2.92 196.179 3.26666 197.033 3.96C197.779 4.6 198.286 5.32 198.553 6.12C198.873 6.92 199.033 8.2 199.033 9.96C199.033 11.2933 198.899 13.8267 198.633 17.56C198.099 24.0667 197.833 29.88 197.833 35C197.833 39.8 197.646 42.92 197.273 44.36C196.899 45.7467 195.966 46.7333 194.473 47.32C193.673 47.64 192.953 47.8 192.313 47.8C191.246 47.8 190.179 47.2667 189.113 46.2C188.579 45.6133 188.233 44.8933 188.073 44.04C187.966 43.1333 187.859 40.5467 187.753 36.28V33.88C187.753 28.9733 187.913 23.6933 188.233 18.04C188.606 12.3333 188.979 8.68 189.353 7.08C189.726 5.53333 190.419 4.46666 191.433 3.88ZM236.039 7.8C236.786 7.42666 237.506 7.24 238.199 7.24C239.373 7.24 240.386 7.61333 241.239 8.36C242.093 9.16 242.653 10.5467 242.919 12.52C243.186 14.4933 243.346 18.4933 243.399 24.52V28.44C243.399 33.88 243.106 37.88 242.519 40.44C241.879 43.2667 240.999 45.24 239.879 46.36C238.866 47.48 237.719 48.04 236.439 48.04C234.999 48.04 233.293 47.1867 231.319 45.48C230.093 44.4667 227.533 40.9733 223.639 35C219.959 29.5067 217.906 26.76 217.479 26.76L217.399 26.84C217.239 27.16 216.999 28.9733 216.679 32.28C216.253 37.72 215.559 41.5067 214.599 43.64C213.693 45.72 212.226 46.76 210.199 46.76C208.866 46.76 207.773 46.2533 206.919 45.24C206.226 44.3867 205.879 43.4267 205.879 42.36C205.879 41.1333 206.146 38.3867 206.679 34.12C206.786 33.2133 206.999 31.32 207.319 28.44C207.639 25.5067 207.879 23.4267 208.039 22.2C208.519 17.4533 209.026 14.1467 209.559 12.28C210.093 10.4133 210.893 9.16 211.959 8.52C213.026 7.88 214.066 7.56 215.079 7.56C217.426 7.56 219.213 9 220.439 11.88C220.813 12.84 221.799 14.5467 223.399 17C223.879 17.64 225.853 20.68 229.319 26.12C231.933 30.28 233.399 32.36 233.719 32.36C233.933 32.36 234.039 31.0267 234.039 28.36C234.039 27.6133 233.986 25.32 233.879 21.48C233.773 17.4267 233.719 15.08 233.719 14.44C233.719 12.04 233.853 10.4933 234.119 9.8C234.439 9.05333 235.079 8.38667 236.039 7.8ZM254.413 3.96C255.213 3.32 256.253 3 257.533 3C258.813 3 259.853 3.32 260.653 3.96C261.239 4.38667 261.613 4.92 261.773 5.56C261.933 6.14667 262.066 7.58667 262.173 9.88L262.413 14.84L265.933 11.56C266.626 10.9733 268.386 9.24 271.213 6.36C273.186 4.12 275.133 3 277.053 3C278.226 3 279.346 3.48 280.413 4.44C281.373 5.45333 281.853 6.57333 281.853 7.8C281.853 8.86666 281.453 9.96 280.653 11.08C279.746 12.2533 277.346 14.7067 273.453 18.44L267.533 24.04L273.773 30.36C277.826 34.4133 280.226 37.0267 280.973 38.2C281.559 39.2133 281.853 40.1467 281.853 41C281.853 42.0667 281.426 43.0533 280.573 43.96C279.986 44.6 279.479 45.0267 279.053 45.24C278.626 45.4533 277.933 45.56 276.973 45.56C275.853 45.56 274.946 45.2933 274.253 44.76C273.559 44.2267 271.506 42.28 268.093 38.92C263.719 34.5467 261.373 32.36 261.053 32.36C260.893 32.36 260.679 34.12 260.413 37.64C260.199 40.7333 259.906 42.8133 259.533 43.88C259.213 44.8933 258.493 45.6933 257.372 46.28C256.519 46.7067 255.906 46.92 255.533 46.92C255.213 46.92 254.653 46.7867 253.853 46.52C252.519 46.0933 251.559 45.1867 250.973 43.8C250.493 42.7867 250.253 41.5067 250.253 39.96C250.253 38.36 250.359 36.0667 250.573 33.08C251.213 20.92 251.746 13.24 252.173 10.04C252.599 6.84 253.346 4.81333 254.413 3.96ZM301.486 1.96C305.593 1.42666 308.26 1.16 309.486 1.16C311.406 1.16 312.793 1.58666 313.646 2.44C314.66 3.4 315.166 4.46666 315.166 5.64C315.166 6.28 315.006 6.97333 314.686 7.72C314.1 8.89333 313.113 9.77333 311.726 10.36C310.393 10.8933 308.153 11.3467 305.006 11.72C302.233 12.04 300.606 12.28 300.126 12.44C299.7 12.6 299.433 13.0267 299.326 13.72C299.326 13.8267 299.3 13.96 299.246 14.12C299.246 14.2267 299.246 14.3067 299.246 14.36C299.246 14.68 299.406 14.8933 299.726 15C300.1 15.0533 300.98 15.08 302.366 15.08C305.726 15.1333 308.153 15.5867 309.646 16.44C311.14 17.2933 311.886 18.6533 311.886 20.52C311.886 21.96 311.353 23.1067 310.286 23.96C309.593 24.5467 308.9 24.92 308.206 25.08C307.566 25.1867 306.073 25.24 303.726 25.24H298.686L298.926 28.92C299.193 32.1733 299.38 34.3067 299.486 35.32L299.806 38.04L303.726 37.64C304.313 37.5867 305.14 37.56 306.206 37.56C311.006 37.56 313.406 39.1333 313.406 42.28C313.406 44.2533 312.766 45.5867 311.486 46.28C310.26 46.9733 307.726 47.4533 303.886 47.72C302.073 47.8267 300.846 47.88 300.206 47.88C296.526 47.88 293.886 47 292.286 45.24C291.273 44.2267 290.58 42.76 290.206 40.84C289.833 38.8667 289.433 35.0267 289.006 29.32C288.846 26.9733 288.766 24.5467 288.766 22.04C288.766 13.5067 289.3 8.17333 290.366 6.04C290.9 4.92 291.913 4.09333 293.406 3.56C294.9 3.02667 297.593 2.49333 301.486 1.96ZM340.844 14.12C339.457 13.48 338.124 13.16 336.844 13.16H336.444C334.364 13.2133 333.137 13.4 332.764 13.72C332.444 13.9867 332.284 15 332.284 16.76V17.16C332.284 19.5067 332.417 20.68 332.684 20.68C333.11 20.68 334.497 20.4133 336.844 19.88C339.19 19.2933 340.737 18.8667 341.484 18.6C342.71 18.1733 343.324 17.4 343.324 16.28C343.324 15.96 343.27 15.7467 343.164 15.64C342.95 15.32 342.177 14.8133 340.844 14.12ZM329.004 4.44C330.764 3.8 333.244 3.48 336.444 3.48C339.004 3.48 341.004 3.72 342.444 4.2C344.257 4.84 346.017 5.74666 347.724 6.92C349.484 8.04 350.71 9.13333 351.404 10.2C352.524 11.9067 353.084 13.8267 353.084 15.96C353.084 17.88 352.657 19.7467 351.804 21.56C350.95 23.3733 349.75 24.8133 348.204 25.88C346.71 27 345.964 27.6667 345.964 27.88C345.964 28.2533 346.684 29.5333 348.124 31.72C350.844 35.9867 352.204 39.1333 352.204 41.16C352.204 42.3867 351.75 43.4533 350.844 44.36C349.99 45.2133 348.977 45.64 347.804 45.64C345.457 45.64 343.697 44.2533 342.524 41.48C342.257 40.7867 341.324 39.1067 339.724 36.44C338.124 33.72 336.87 31.6933 335.964 30.36C335.91 30.3067 335.43 30.36 334.524 30.52L333.084 30.84L333.484 36.2C333.537 36.8933 333.564 37.88 333.564 39.16C333.564 42.1467 333.19 44.3067 332.444 45.64C331.697 46.92 330.497 47.56 328.844 47.56C326.817 47.56 325.484 46.9733 324.844 45.8C324.204 44.6267 323.777 42.0133 323.564 37.96C323.137 31.7733 322.817 27.4533 322.604 25C322.39 22.8667 322.284 20.5467 322.284 18.04C322.284 13.8267 322.577 10.92 323.164 9.32C323.857 7.34666 325.804 5.72 329.004 4.44ZM371.54 4.52C373.14 3.77333 374.847 3.4 376.66 3.4C380.607 3.4 383.593 4.54666 385.62 6.84C386.687 8.06667 387.22 9.37333 387.22 10.76C387.22 11.9867 386.793 13.0267 385.94 13.88C384.873 14.9467 383.833 15.48 382.82 15.48C381.913 15.48 380.927 15.1333 379.86 14.44C378.473 13.5867 377.38 13.16 376.58 13.16C375.993 13.16 375.433 13.4267 374.9 13.96C374.207 14.6 373.86 15.3733 373.86 16.28C373.86 17.4 374.34 18.5733 375.3 19.8C376.313 20.9733 377.673 21.96 379.38 22.76C383.06 24.52 385.407 27.08 386.42 30.44C386.9 32.04 387.14 33.3467 387.14 34.36C387.14 35.48 386.873 36.8667 386.34 38.52C385.807 40.3867 384.66 42.1733 382.9 43.88C381.193 45.5333 379.46 46.5733 377.7 47C376.9 47.2133 375.86 47.32 374.58 47.32C370.367 47.32 367.273 46.6267 365.3 45.24C363.753 44.2267 362.5 42.9733 361.54 41.48C360.633 39.9333 360.18 38.4667 360.18 37.08C360.18 35.9067 360.527 34.9467 361.22 34.2C362.233 33.1333 363.407 32.6 364.74 32.6C366.447 32.6 367.833 33.4533 368.9 35.16C369.807 36.6533 371.647 37.4 374.42 37.4C375.327 37.4 375.967 37.1867 376.34 36.76C376.767 36.28 376.98 35.48 376.98 34.36C376.98 33.4533 376.82 32.84 376.5 32.52C376.233 32.1467 375.3 31.5867 373.7 30.84C370.82 29.4533 368.473 27.3467 366.66 24.52C364.847 21.64 363.94 18.68 363.94 15.64C363.94 14.4667 364.1 13.32 364.42 12.2C364.847 10.8133 365.727 9.4 367.06 7.96C368.393 6.52 369.887 5.37333 371.54 4.52Z" fill="white"/>
</svg>
