<svg width="35" height="35" viewBox="0 0 35 35" fill="none" xmlns="http://www.w3.org/2000/svg">
<path d="M13.125 1.45831V4.37498H21.875V1.45831H24.7917V4.37498H30.625C31.0118 4.37498 31.3827 4.52862 31.6562 4.80212C31.9297 5.07561 32.0833 5.44654 32.0833 5.83331V29.1666C32.0833 29.5534 31.9297 29.9244 31.6562 30.1978C31.3827 30.4713 31.0118 30.625 30.625 30.625H4.37499C3.98822 30.625 3.61728 30.4713 3.34379 30.1978C3.0703 29.9244 2.91666 29.5534 2.91666 29.1666V5.83331C2.91666 5.44654 3.0703 5.07561 3.34379 4.80212C3.61728 4.52862 3.98822 4.37498 4.37499 4.37498H10.2083V1.45831H13.125ZM29.1667 16.0416H5.83332V27.7083H29.1667V16.0416ZM10.2083 7.29165H5.83332V13.125H29.1667V7.29165H24.7917V10.2083H21.875V7.29165H13.125V10.2083H10.2083V7.29165Z" fill="#655F4B"/>
</svg>
