<svg width="40" height="40" viewBox="0 0 40 40" fill="none" xmlns="http://www.w3.org/2000/svg">
<rect width="40" height="40" rx="20" fill="white"/>
<path fill-rule="evenodd" clip-rule="evenodd" d="M13.75 20C13.75 18.3424 14.4085 16.7527 15.5806 15.5806C16.7527 14.4085 18.3424 13.75 20 13.75C21.6576 13.75 23.2473 14.4085 24.4194 15.5806C25.5915 16.7527 26.25 18.3424 26.25 20C26.25 21.6576 25.5915 23.2473 24.4194 24.4194C23.2473 25.5915 21.6576 26.25 20 26.25C18.3424 26.25 16.7527 25.5915 15.5806 24.4194C14.4085 23.2473 13.75 21.6576 13.75 20ZM20 16.25C19.0054 16.25 18.0516 16.6451 17.3483 17.3483C16.6451 18.0516 16.25 19.0054 16.25 20C16.25 20.9946 16.6451 21.9484 17.3483 22.6516C18.0516 23.3549 19.0054 23.75 20 23.75C20.9946 23.75 21.9484 23.3549 22.6516 22.6516C23.3549 21.9484 23.75 20.9946 23.75 20C23.75 19.0054 23.3549 18.0516 22.6516 17.3483C21.9484 16.6451 20.9946 16.25 20 16.25Z" fill="#585858"/>
<path fill-rule="evenodd" clip-rule="evenodd" d="M7.205 17.7433C6.50667 18.75 6.25 19.5383 6.25 20C6.25 20.4617 6.50667 21.25 7.205 22.2567C7.88167 23.2283 8.885 24.2833 10.155 25.2583C12.7 27.2117 16.1883 28.75 20 28.75C23.8117 28.75 27.3 27.2117 29.845 25.2583C31.115 24.2833 32.1183 23.2283 32.795 22.2567C33.4933 21.25 33.75 20.4617 33.75 20C33.75 19.5383 33.4933 18.75 32.795 17.7433C32.1183 16.7717 31.115 15.7167 29.845 14.7417C27.3 12.7883 23.8117 11.25 20 11.25C16.1883 11.25 12.7 12.7883 10.155 14.7417C8.885 15.7167 7.88167 16.7717 7.205 17.7433ZM8.63167 12.7583C11.5167 10.545 15.5267 8.75 20 8.75C24.4733 8.75 28.4833 10.545 31.3667 12.7583C32.8117 13.8667 34.005 15.1033 34.8483 16.3183C35.6683 17.5 36.25 18.795 36.25 20C36.25 21.205 35.6667 22.5 34.8483 23.6817C34.005 24.8967 32.8117 26.1317 31.3683 27.2417C28.485 29.455 24.4733 31.25 20 31.25C15.5267 31.25 11.5167 29.455 8.63333 27.2417C7.18833 26.1333 5.995 24.8967 5.15167 23.6817C4.33333 22.5 3.75 21.205 3.75 20C3.75 18.795 4.33333 17.5 5.15167 16.3183C5.995 15.1033 7.18833 13.8683 8.63167 12.7583Z" fill="#585858"/>
</svg>
