<svg width="72" height="72" viewBox="0 0 72 72" fill="none" xmlns="http://www.w3.org/2000/svg">
<path d="M12 54C12 50.8174 13.2643 47.7652 15.5147 45.5147C17.7652 43.2643 20.8174 42 24 42H48C51.1826 42 54.2348 43.2643 56.4853 45.5147C58.7357 47.7652 60 50.8174 60 54C60 55.5913 59.3679 57.1174 58.2426 58.2426C57.1174 59.3679 55.5913 60 54 60H18C16.4087 60 14.8826 59.3679 13.7574 58.2426C12.6321 57.1174 12 55.5913 12 54Z" stroke="white" stroke-width="4" stroke-linejoin="round"/>
<path d="M36 30C40.9706 30 45 25.9706 45 21C45 16.0294 40.9706 12 36 12C31.0294 12 27 16.0294 27 21C27 25.9706 31.0294 30 36 30Z" stroke="white" stroke-width="4"/>
</svg>
