<svg width="10" height="13" viewBox="0 0 10 13" fill="none" xmlns="http://www.w3.org/2000/svg">
<path d="M6.87913 0.607999C7.15113 0.463999 7.42313 0.391999 7.69513 0.391999C8.09513 0.391999 8.44713 0.527999 8.75113 0.8C9.07113 1.072 9.23113 1.408 9.23113 1.808C9.23113 2.208 9.08713 2.576 8.79913 2.912C8.52713 3.232 7.77513 3.896 6.54313 4.904C5.13513 6.056 4.43113 6.712 4.43113 6.872C4.43113 6.936 5.11113 7.496 6.47113 8.552C7.84713 9.624 8.61513 10.272 8.77513 10.496C8.98313 10.768 9.08713 11.072 9.08713 11.408C9.08713 12.096 8.74313 12.584 8.05513 12.872C7.92713 12.904 7.83113 12.92 7.76713 12.92C7.15913 12.92 6.39913 12.552 5.48713 11.816C5.02313 11.432 4.33513 10.888 3.42313 10.184C1.64713 8.808 0.759125 7.648 0.759125 6.704C0.759125 6.32 0.863125 5.968 1.07113 5.648C1.26313 5.328 2.15113 4.488 3.73513 3.128C5.31913 1.752 6.36713 0.911999 6.87913 0.607999Z" fill="#754600"/>
</svg>
